# This file uses centimeters as units for non-parametric coordinates.

mtllib Dedo.mtl
g default
v -242.883789 -44.748901 34.742676
v -277.812500 32.421509 43.202148
v -266.972656 30.622192 -29.109375
v -231.572754 -59.021973 -49.839355
v -184.256836 54.868652 -19.470703
v -184.256836 -36.815186 -19.470215
v -184.256836 -25.363892 49.839844
v -184.256836 54.868652 49.839844
v -57.203613 59.021851 -19.470703
v -30.037109 18.195435 -19.470215
v -30.037109 18.195435 44.217773
v -57.203613 59.021851 44.217773
v 277.812988 54.835938 0.832031
vt 0.428881 0.828643
vt 0.245580 0.938891
vt 0.228110 0.938869
vt 0.249979 0.926746
vt 0.275865 0.928708
vt 0.276699 0.922575
vt 0.445096 0.505589
vt 0.542898 0.167911
vt 0.476700 0.171584
vt 0.531712 0.417492
vt 0.588159 0.714249
vt 0.606017 0.710532
vt 0.577409 0.918435
vt 0.585949 0.903086
vt 0.596123 0.896555
vt 0.591642 0.921297
vt 0.606519 0.898830
vt 0.601248 0.923012
vt 0.612885 0.909217
vt 0.612880 0.925767
vt 0.568445 0.913173
vt 0.577622 0.897538
vt 0.609317 0.861505
vn 0.239049 0.156227 -0.958357
vn 0.239049 0.156227 -0.958357
vn 0.239049 0.156227 -0.958357
vn 0.239049 0.156227 -0.958357
vn 0.292229 -0.939537 0.178530
vn 0.292229 -0.939537 0.178530
vn 0.292229 -0.939537 0.178530
vn 0.292229 -0.939537 0.178530
vn -0.119436 -0.079690 0.989639
vn -0.119436 -0.079690 0.989639
vn -0.119436 -0.079690 0.989639
vn -0.119436 -0.079690 0.989639
vn -0.253202 0.966895 -0.031663
vn -0.253202 0.966895 -0.031663
vn -0.253202 0.966895 -0.031663
vn -0.253202 0.966895 -0.031663
vn 0.000000 -0.000007 -1.000000
vn 0.000000 -0.000007 -1.000000
vn 0.000000 -0.000007 -1.000000
vn 0.000000 -0.000007 -1.000000
vn 0.304740 -0.948925 0.081703
vn 0.304740 -0.948925 0.081703
vn 0.304740 -0.948925 0.081703
vn 0.304740 -0.948925 0.081703
vn 0.038485 0.008635 0.999222
vn 0.038485 0.008635 0.999222
vn 0.038485 0.008635 0.999222
vn 0.038485 0.008635 0.999222
vn -0.032671 0.999466 0.000000
vn -0.032671 0.999466 0.000000
vn -0.032671 0.999466 0.000000
vn -0.032671 0.999466 0.000000
vn 0.060945 0.040542 -0.997317
vn 0.060945 0.040542 -0.997317
vn 0.060945 0.040542 -0.997317
vn 0.118187 -0.992991 0.000000
vn 0.118187 -0.992991 0.000000
vn 0.118187 -0.992991 0.000000
vn 0.129009 0.085845 0.987921
vn 0.129009 0.085845 0.987921
vn 0.129009 0.085845 0.987921
vn 0.012494 0.999922 0.000000
vn 0.012494 0.999922 0.000000
vn 0.012494 0.999922 0.000000
vn -0.923205 -0.373104 -0.092120
vn -0.923205 -0.373104 -0.092120
vn -0.923205 -0.373104 -0.092120
vn -0.923205 -0.373104 -0.092120
s off
g Dedo:Boss
usemtl initialShadingGroup
f 3/1/1 5/2/2 6/3/3 4/4/4
f 4/4/5 6/5/6 7/6/7 1/7/8
f 1/7/9 7/8/10 8/9/11 2/10/12
f 2/10/13 8/11/14 5/12/15 3/1/16
f 5/13/17 9/14/18 10/15/19 6/16/20
f 6/16/21 10/15/22 11/17/23 7/18/24
f 7/18/25 11/17/26 12/19/27 8/20/28
f 8/21/29 12/22/30 9/14/31 5/13/32
f 9/14/33 13/23/34 10/15/35
f 10/15/36 13/23/37 11/17/38
f 11/17/39 13/23/40 12/19/41
f 12/22/42 13/23/43 9/14/44
f 4/4/45 1/7/46 2/10/47 3/1/48
